<mxfile host="app.diagrams.net" modified="2023-06-04T16:40:03.791Z" agent="Mozilla/5.0 (Windows NT 10.0; Win64; x64; rv:109.0) Gecko/20100101 Firefox/112.0" etag="XCt6qIwtS_YmwajwCXY7" version="21.2.3" type="device">
  <diagram name="Page-1" id="8v86jh88TvrKydYEYZKK">
    <mxGraphModel dx="1050" dy="530" grid="1" gridSize="10" guides="1" tooltips="1" connect="1" arrows="1" fold="1" page="1" pageScale="1" pageWidth="850" pageHeight="1100" math="0" shadow="0">
      <root>
        <mxCell id="0" />
        <mxCell id="1" parent="0" />
        <mxCell id="Zgin83Nb0O7cj6JU26va-5" style="rounded=0;orthogonalLoop=1;jettySize=auto;html=1;exitX=0.5;exitY=1;exitDx=0;exitDy=0;entryX=0.5;entryY=0;entryDx=0;entryDy=0;dashed=1;strokeColor=#707070;" edge="1" parent="1" source="Zgin83Nb0O7cj6JU26va-2" target="Zgin83Nb0O7cj6JU26va-3">
          <mxGeometry relative="1" as="geometry" />
        </mxCell>
        <mxCell id="Zgin83Nb0O7cj6JU26va-6" style="rounded=0;orthogonalLoop=1;jettySize=auto;html=1;entryX=0.5;entryY=0;entryDx=0;entryDy=0;strokeColor=#707070;exitX=0.5;exitY=1;exitDx=0;exitDy=0;dashed=1;" edge="1" parent="1" source="Zgin83Nb0O7cj6JU26va-2" target="Zgin83Nb0O7cj6JU26va-4">
          <mxGeometry relative="1" as="geometry" />
        </mxCell>
        <mxCell id="Zgin83Nb0O7cj6JU26va-7" style="edgeStyle=orthogonalEdgeStyle;rounded=0;orthogonalLoop=1;jettySize=auto;html=1;entryX=0;entryY=0.5;entryDx=0;entryDy=0;exitX=0;exitY=0.5;exitDx=0;exitDy=0;fillColor=#1ba1e2;strokeColor=#006EAF;" edge="1" parent="1" source="Zgin83Nb0O7cj6JU26va-2" target="Zgin83Nb0O7cj6JU26va-3">
          <mxGeometry relative="1" as="geometry" />
        </mxCell>
        <mxCell id="Zgin83Nb0O7cj6JU26va-2" value="&lt;font style=&quot;font-size: 14px;&quot;&gt;HS&lt;sub&gt;1&lt;/sub&gt;&lt;/font&gt;" style="rounded=1;whiteSpace=wrap;html=1;" vertex="1" parent="1">
          <mxGeometry x="360" y="40" width="80" height="40" as="geometry" />
        </mxCell>
        <mxCell id="Zgin83Nb0O7cj6JU26va-8" style="edgeStyle=orthogonalEdgeStyle;rounded=0;orthogonalLoop=1;jettySize=auto;html=1;exitX=1;exitY=0.5;exitDx=0;exitDy=0;entryX=0;entryY=0.5;entryDx=0;entryDy=0;fillColor=#1ba1e2;strokeColor=#006EAF;" edge="1" parent="1" source="Zgin83Nb0O7cj6JU26va-3" target="Zgin83Nb0O7cj6JU26va-4">
          <mxGeometry relative="1" as="geometry" />
        </mxCell>
        <mxCell id="Zgin83Nb0O7cj6JU26va-13" style="rounded=0;orthogonalLoop=1;jettySize=auto;html=1;exitX=0.5;exitY=1;exitDx=0;exitDy=0;entryX=0.5;entryY=0;entryDx=0;entryDy=0;dashed=1;strokeColor=#707070;" edge="1" parent="1" source="Zgin83Nb0O7cj6JU26va-3" target="Zgin83Nb0O7cj6JU26va-9">
          <mxGeometry relative="1" as="geometry" />
        </mxCell>
        <mxCell id="Zgin83Nb0O7cj6JU26va-14" style="rounded=0;orthogonalLoop=1;jettySize=auto;html=1;exitX=0.5;exitY=1;exitDx=0;exitDy=0;entryX=0.5;entryY=0;entryDx=0;entryDy=0;dashed=1;strokeColor=#707070;" edge="1" parent="1" source="Zgin83Nb0O7cj6JU26va-3" target="Zgin83Nb0O7cj6JU26va-10">
          <mxGeometry relative="1" as="geometry" />
        </mxCell>
        <mxCell id="Zgin83Nb0O7cj6JU26va-3" value="&lt;font style=&quot;font-size: 14px;&quot;&gt;HS&lt;sub&gt;2&lt;/sub&gt;&lt;/font&gt;" style="rounded=1;whiteSpace=wrap;html=1;" vertex="1" parent="1">
          <mxGeometry x="240" y="120" width="80" height="40" as="geometry" />
        </mxCell>
        <mxCell id="Zgin83Nb0O7cj6JU26va-15" style="rounded=0;orthogonalLoop=1;jettySize=auto;html=1;exitX=0.5;exitY=1;exitDx=0;exitDy=0;entryX=0.5;entryY=0;entryDx=0;entryDy=0;dashed=1;strokeColor=#707070;" edge="1" parent="1" source="Zgin83Nb0O7cj6JU26va-4" target="Zgin83Nb0O7cj6JU26va-11">
          <mxGeometry relative="1" as="geometry" />
        </mxCell>
        <mxCell id="Zgin83Nb0O7cj6JU26va-16" style="rounded=0;orthogonalLoop=1;jettySize=auto;html=1;exitX=0.5;exitY=1;exitDx=0;exitDy=0;entryX=0.5;entryY=0;entryDx=0;entryDy=0;dashed=1;strokeColor=#707070;" edge="1" parent="1" source="Zgin83Nb0O7cj6JU26va-4" target="Zgin83Nb0O7cj6JU26va-12">
          <mxGeometry relative="1" as="geometry" />
        </mxCell>
        <mxCell id="Zgin83Nb0O7cj6JU26va-17" style="edgeStyle=orthogonalEdgeStyle;rounded=0;orthogonalLoop=1;jettySize=auto;html=1;entryX=0;entryY=0.5;entryDx=0;entryDy=0;fillColor=#1ba1e2;strokeColor=#006EAF;" edge="1" parent="1" source="Zgin83Nb0O7cj6JU26va-4" target="Zgin83Nb0O7cj6JU26va-9">
          <mxGeometry relative="1" as="geometry">
            <Array as="points">
              <mxPoint x="520" y="180" />
              <mxPoint x="160" y="180" />
              <mxPoint x="160" y="220" />
            </Array>
          </mxGeometry>
        </mxCell>
        <mxCell id="Zgin83Nb0O7cj6JU26va-4" value="&lt;font style=&quot;font-size: 14px;&quot;&gt;HS&lt;sub&gt;3&lt;/sub&gt;&lt;/font&gt;" style="rounded=1;whiteSpace=wrap;html=1;" vertex="1" parent="1">
          <mxGeometry x="480" y="120" width="80" height="40" as="geometry" />
        </mxCell>
        <mxCell id="Zgin83Nb0O7cj6JU26va-18" style="edgeStyle=orthogonalEdgeStyle;rounded=0;orthogonalLoop=1;jettySize=auto;html=1;exitX=1;exitY=0.5;exitDx=0;exitDy=0;entryX=0;entryY=0.5;entryDx=0;entryDy=0;fillColor=#1ba1e2;strokeColor=#006EAF;" edge="1" parent="1" source="Zgin83Nb0O7cj6JU26va-9" target="Zgin83Nb0O7cj6JU26va-10">
          <mxGeometry relative="1" as="geometry" />
        </mxCell>
        <mxCell id="Zgin83Nb0O7cj6JU26va-30" style="rounded=0;orthogonalLoop=1;jettySize=auto;html=1;exitX=0.5;exitY=1;exitDx=0;exitDy=0;entryX=0.5;entryY=0;entryDx=0;entryDy=0;dashed=1;strokeColor=#707070;" edge="1" parent="1" source="Zgin83Nb0O7cj6JU26va-9" target="Zgin83Nb0O7cj6JU26va-21">
          <mxGeometry relative="1" as="geometry" />
        </mxCell>
        <mxCell id="Zgin83Nb0O7cj6JU26va-31" style="rounded=0;orthogonalLoop=1;jettySize=auto;html=1;exitX=0.5;exitY=1;exitDx=0;exitDy=0;entryX=0.5;entryY=0;entryDx=0;entryDy=0;dashed=1;strokeColor=#707070;" edge="1" parent="1" source="Zgin83Nb0O7cj6JU26va-9" target="Zgin83Nb0O7cj6JU26va-22">
          <mxGeometry relative="1" as="geometry" />
        </mxCell>
        <mxCell id="Zgin83Nb0O7cj6JU26va-9" value="&lt;font style=&quot;font-size: 14px;&quot;&gt;HS&lt;sub&gt;4&lt;/sub&gt;&lt;/font&gt;" style="rounded=1;whiteSpace=wrap;html=1;" vertex="1" parent="1">
          <mxGeometry x="180" y="200" width="80" height="40" as="geometry" />
        </mxCell>
        <mxCell id="Zgin83Nb0O7cj6JU26va-19" style="edgeStyle=orthogonalEdgeStyle;rounded=0;orthogonalLoop=1;jettySize=auto;html=1;exitX=1;exitY=0.5;exitDx=0;exitDy=0;entryX=0;entryY=0.5;entryDx=0;entryDy=0;fillColor=#1ba1e2;strokeColor=#006EAF;" edge="1" parent="1" source="Zgin83Nb0O7cj6JU26va-10" target="Zgin83Nb0O7cj6JU26va-11">
          <mxGeometry relative="1" as="geometry" />
        </mxCell>
        <mxCell id="Zgin83Nb0O7cj6JU26va-32" style="rounded=0;orthogonalLoop=1;jettySize=auto;html=1;exitX=0.5;exitY=1;exitDx=0;exitDy=0;entryX=0.5;entryY=0;entryDx=0;entryDy=0;dashed=1;strokeColor=#707070;" edge="1" parent="1" source="Zgin83Nb0O7cj6JU26va-10" target="Zgin83Nb0O7cj6JU26va-23">
          <mxGeometry relative="1" as="geometry" />
        </mxCell>
        <mxCell id="Zgin83Nb0O7cj6JU26va-33" style="rounded=0;orthogonalLoop=1;jettySize=auto;html=1;exitX=0.5;exitY=1;exitDx=0;exitDy=0;entryX=0.5;entryY=0;entryDx=0;entryDy=0;dashed=1;strokeColor=#707070;" edge="1" parent="1" source="Zgin83Nb0O7cj6JU26va-10" target="Zgin83Nb0O7cj6JU26va-25">
          <mxGeometry relative="1" as="geometry" />
        </mxCell>
        <mxCell id="Zgin83Nb0O7cj6JU26va-10" value="&lt;font style=&quot;font-size: 14px;&quot;&gt;HS&lt;sub&gt;5&lt;/sub&gt;&lt;/font&gt;" style="rounded=1;whiteSpace=wrap;html=1;" vertex="1" parent="1">
          <mxGeometry x="300" y="200" width="80" height="40" as="geometry" />
        </mxCell>
        <mxCell id="Zgin83Nb0O7cj6JU26va-20" style="edgeStyle=orthogonalEdgeStyle;rounded=0;orthogonalLoop=1;jettySize=auto;html=1;exitX=1;exitY=0.5;exitDx=0;exitDy=0;entryX=0;entryY=0.5;entryDx=0;entryDy=0;fillColor=#1ba1e2;strokeColor=#006EAF;" edge="1" parent="1" source="Zgin83Nb0O7cj6JU26va-11" target="Zgin83Nb0O7cj6JU26va-12">
          <mxGeometry relative="1" as="geometry" />
        </mxCell>
        <mxCell id="Zgin83Nb0O7cj6JU26va-34" style="rounded=0;orthogonalLoop=1;jettySize=auto;html=1;exitX=0.5;exitY=1;exitDx=0;exitDy=0;entryX=0.5;entryY=0;entryDx=0;entryDy=0;dashed=1;strokeColor=#707070;" edge="1" parent="1" source="Zgin83Nb0O7cj6JU26va-11" target="Zgin83Nb0O7cj6JU26va-26">
          <mxGeometry relative="1" as="geometry" />
        </mxCell>
        <mxCell id="Zgin83Nb0O7cj6JU26va-35" style="rounded=0;orthogonalLoop=1;jettySize=auto;html=1;exitX=0.5;exitY=1;exitDx=0;exitDy=0;entryX=0.5;entryY=0;entryDx=0;entryDy=0;dashed=1;strokeColor=#707070;" edge="1" parent="1" source="Zgin83Nb0O7cj6JU26va-11" target="Zgin83Nb0O7cj6JU26va-27">
          <mxGeometry relative="1" as="geometry" />
        </mxCell>
        <mxCell id="Zgin83Nb0O7cj6JU26va-11" value="&lt;font style=&quot;font-size: 14px;&quot;&gt;HS&lt;sub&gt;6&lt;/sub&gt;&lt;/font&gt;" style="rounded=1;whiteSpace=wrap;html=1;" vertex="1" parent="1">
          <mxGeometry x="420" y="200" width="80" height="40" as="geometry" />
        </mxCell>
        <mxCell id="Zgin83Nb0O7cj6JU26va-36" style="rounded=0;orthogonalLoop=1;jettySize=auto;html=1;exitX=0.5;exitY=1;exitDx=0;exitDy=0;entryX=0.5;entryY=0;entryDx=0;entryDy=0;dashed=1;strokeColor=#707070;" edge="1" parent="1" source="Zgin83Nb0O7cj6JU26va-12" target="Zgin83Nb0O7cj6JU26va-28">
          <mxGeometry relative="1" as="geometry" />
        </mxCell>
        <mxCell id="Zgin83Nb0O7cj6JU26va-37" style="rounded=0;orthogonalLoop=1;jettySize=auto;html=1;exitX=0.5;exitY=1;exitDx=0;exitDy=0;entryX=0.5;entryY=0;entryDx=0;entryDy=0;dashed=1;strokeColor=#707070;" edge="1" parent="1" source="Zgin83Nb0O7cj6JU26va-12" target="Zgin83Nb0O7cj6JU26va-29">
          <mxGeometry relative="1" as="geometry" />
        </mxCell>
        <mxCell id="Zgin83Nb0O7cj6JU26va-12" value="&lt;font style=&quot;font-size: 14px;&quot;&gt;HS&lt;sub&gt;7&lt;/sub&gt;&lt;/font&gt;" style="rounded=1;whiteSpace=wrap;html=1;" vertex="1" parent="1">
          <mxGeometry x="540" y="200" width="80" height="40" as="geometry" />
        </mxCell>
        <mxCell id="Zgin83Nb0O7cj6JU26va-21" value="&lt;font style=&quot;font-size: 14px;&quot;&gt;c&lt;sub&gt;8&lt;/sub&gt;&lt;/font&gt;" style="ellipse;whiteSpace=wrap;html=1;aspect=fixed;dashed=1;strokeColor=#707070;" vertex="1" parent="1">
          <mxGeometry x="170" y="280" width="40" height="40" as="geometry" />
        </mxCell>
        <mxCell id="Zgin83Nb0O7cj6JU26va-22" value="&lt;font style=&quot;font-size: 14px;&quot;&gt;c&lt;sub&gt;9&lt;/sub&gt;&lt;/font&gt;" style="ellipse;whiteSpace=wrap;html=1;aspect=fixed;dashed=1;strokeColor=#707070;" vertex="1" parent="1">
          <mxGeometry x="230" y="280" width="40" height="40" as="geometry" />
        </mxCell>
        <mxCell id="Zgin83Nb0O7cj6JU26va-23" value="&lt;font style=&quot;font-size: 14px;&quot;&gt;c&lt;sub&gt;10&lt;/sub&gt;&lt;/font&gt;" style="ellipse;whiteSpace=wrap;html=1;aspect=fixed;dashed=1;strokeColor=#707070;" vertex="1" parent="1">
          <mxGeometry x="290" y="280" width="40" height="40" as="geometry" />
        </mxCell>
        <mxCell id="Zgin83Nb0O7cj6JU26va-25" value="&lt;font style=&quot;font-size: 14px;&quot;&gt;c&lt;sub&gt;11&lt;/sub&gt;&lt;/font&gt;" style="ellipse;whiteSpace=wrap;html=1;aspect=fixed;dashed=1;strokeColor=#707070;" vertex="1" parent="1">
          <mxGeometry x="350" y="280" width="40" height="40" as="geometry" />
        </mxCell>
        <mxCell id="Zgin83Nb0O7cj6JU26va-26" value="&lt;font style=&quot;font-size: 14px;&quot;&gt;c&lt;sub&gt;12&lt;/sub&gt;&lt;/font&gt;" style="ellipse;whiteSpace=wrap;html=1;aspect=fixed;dashed=1;strokeColor=#707070;" vertex="1" parent="1">
          <mxGeometry x="410" y="280" width="40" height="40" as="geometry" />
        </mxCell>
        <mxCell id="Zgin83Nb0O7cj6JU26va-27" value="&lt;font style=&quot;font-size: 14px;&quot;&gt;c&lt;sub&gt;13&lt;/sub&gt;&lt;/font&gt;" style="ellipse;whiteSpace=wrap;html=1;aspect=fixed;dashed=1;strokeColor=#707070;" vertex="1" parent="1">
          <mxGeometry x="470" y="280" width="40" height="40" as="geometry" />
        </mxCell>
        <mxCell id="Zgin83Nb0O7cj6JU26va-28" value="&lt;font style=&quot;font-size: 14px;&quot;&gt;c&lt;sub&gt;14&lt;/sub&gt;&lt;/font&gt;" style="ellipse;whiteSpace=wrap;html=1;aspect=fixed;dashed=1;strokeColor=#707070;" vertex="1" parent="1">
          <mxGeometry x="530" y="280" width="40" height="40" as="geometry" />
        </mxCell>
        <mxCell id="Zgin83Nb0O7cj6JU26va-29" value="&lt;font style=&quot;font-size: 14px;&quot;&gt;c&lt;sub&gt;15&lt;/sub&gt;&lt;/font&gt;" style="ellipse;whiteSpace=wrap;html=1;aspect=fixed;dashed=1;strokeColor=#707070;" vertex="1" parent="1">
          <mxGeometry x="590" y="280" width="40" height="40" as="geometry" />
        </mxCell>
        <mxCell id="Zgin83Nb0O7cj6JU26va-39" style="edgeStyle=orthogonalEdgeStyle;rounded=0;orthogonalLoop=1;jettySize=auto;html=1;exitX=0;exitY=0.5;exitDx=0;exitDy=0;entryX=1;entryY=0.5;entryDx=0;entryDy=0;fillColor=#1ba1e2;strokeColor=#006EAF;" edge="1" parent="1" source="Zgin83Nb0O7cj6JU26va-38" target="Zgin83Nb0O7cj6JU26va-2">
          <mxGeometry relative="1" as="geometry" />
        </mxCell>
        <mxCell id="Zgin83Nb0O7cj6JU26va-38" value="&lt;font style=&quot;font-size: 14px;&quot;&gt;HS&lt;sub&gt;0&lt;/sub&gt;&lt;/font&gt;" style="rounded=1;whiteSpace=wrap;html=1;fillColor=#dae8fc;strokeColor=#6c8ebf;strokeWidth=2;" vertex="1" parent="1">
          <mxGeometry x="540" y="40" width="80" height="40" as="geometry" />
        </mxCell>
      </root>
    </mxGraphModel>
  </diagram>
</mxfile>
